# xmcd
# 
# Track frame offsets:
#     150
#     19561
#     33313
#     56126
#     74122
#     95433
#     111059
#     125504
#     143554
#     161581
#     176978
#     201109
# 
# Disc length: 2883
# 
# Revision: 9
# Processed by: cddbd v1.5.2PL0 Copyright (c) Steve Scherf et al.
# Submitted via: fre:ac v1.1beta1pre5
# 
DISCID=ab0b410c
DTITLE=Wir Sind Helden - Bring mich nach Hause
DYEAR=2010
DGENRE=Deutschrock
TTITLE0=Alles
TTITLE1=Was uns beiden gehört
TTITLE2=Bring mich nach Hause
TTITLE3=Flucht in Ketten
TTITLE4=Die Ballade von Wolfgang und Brigitte
TTITLE5=Dramatiker
TTITLE6=23.55 - Alles auf Anfang
TTITLE7=Die Träume anderer Leute
TTITLE8=Meine Freundin war im Koma und alles, was sie mir mitgebracht hat, war dieses lausige T-Shirt
TTITLE9=Kreise
TTITLE10=Im Auge des Sturms
TTITLE11=Nichts, was wir tun könnten
EXTD=
EXTT0=
EXTT1=
EXTT2=
EXTT3=
EXTT4=
EXTT5=
EXTT6=
EXTT7=
EXTT8=
EXTT9=
EXTT10=
EXTT11=
PLAYORDER=
